# xmcd
#
# Track frame offsets:
#	150
#	12730
#	33509
#	46929
#	61449
#	78050
#	89590
#	102944
#	118486
#	134052
#	145400
#	154718
#	180472
#	195481
#	213735
#	231111
#	244463
#	258218
#	274757
#	289718
#
# Disc length: 3984
#
# Revision: 1
# Processed by: cddbd v1.5.1PL0 Copyright (c) Steve Scherf et al.
# Submitted via: CDex 1.51
# Normalized: r0:DSETVAR1,TDELIM( - )
#
DISCID=2f0f8e14
DTITLE=Various Artist - Jazz Columbia
DYEAR=2000
DGENRE=Jazz
TTITLE0=Carmen Mcrae - Nice Work If You Can Get It
TTITLE1=Jackie Paris and Anne Marie Moss - Nothing
TTITLE2=Jack Tegarden - Beale Street Blues
TTITLE3=Boots Castle - The Hour Of Parting
TTITLE4=Bob Eberly - The Neamess Of You
TTITLE5=Fats Waller - A Tisket A Tasket
TTITLE6=Paula Green - I've Got My Eyes On You
TTITLE7=Billie Holiday - Yesterday
TTITLE8=Dolly Mitchell - Shoo Shoo Baby
TTITLE9=Tony Bennett - Boulevard Of Broken Dreams
TTITLE10=Peggy Lee - Let There Be Love
TTITLE11=Ruth Brown - Be Anything
TTITLE12=Dakota Staton - Girl Talk
TTITLE13=Jackie Paris and Anne Marie Moss - Fish Fly
TTITLE14=Earl Colemen - All In Love Is Fair
TTITLE15=Red Mckenzie - Fan It
TTITLE16=Guy Kelly - The Blues Jumped A Rabbit
TTITLE17=Helen O'connell - Just For A Thrill
TTITLE18=Bob Eberly - Fools Rush In
TTITLE19=Doris Day - Crying My Heart Out For You
EXTD=YEAR: 2000
EXTT0=
EXTT1=
EXTT2=
EXTT3=
EXTT4=
EXTT5=
EXTT6=
EXTT7=
EXTT8=
EXTT9=
EXTT10=
EXTT11=
EXTT12=
EXTT13=
EXTT14=
EXTT15=
EXTT16=
EXTT17=
EXTT18=
EXTT19=
PLAYORDER=
